<?xml version="1.0" encoding="UTF-8" standalone="no"?>
<svg
   version="1.1"
   width="3905"
   height="2065"
   style="clip-rule:evenodd;fill-rule:evenodd;image-rendering:optimizeQuality;shape-rendering:geometricPrecision;text-rendering:geometricPrecision"
   id="svg638"
   sodipodi:docname="LE_1.8G_20240516.svg"
   inkscape:version="1.3.2 (091e20e, 2023-11-25, custom)"
   xml:space="preserve"
   xmlns:inkscape="http://www.inkscape.org/namespaces/inkscape"
   xmlns:sodipodi="http://sodipodi.sourceforge.net/DTD/sodipodi-0.dtd"
   xmlns:xlink="http://www.w3.org/1999/xlink"
   xmlns="http://www.w3.org/2000/svg"
   xmlns:svg="http://www.w3.org/2000/svg"><defs
     id="defs642"><style
       id="style1">
      .cls-1 {
        fill-rule: evenodd;
      }

      .cls-1, .cls-2, .cls-3 {
        stroke-width: 0px;
      }

      .cls-1, .cls-3 {
        fill: #1c355e;
      }

      .cls-4 {
        opacity: .06;
      }

      .cls-2 {
        fill: none;
      }

      .cls-5 {
        clip-path: url(#clippath);
      }
    </style><clipPath
       id="clippath"><rect
         class="cls-2"
         x="1.52"
         y="1.87"
         width="3902.09"
         height="2063.74"
         id="rect1" /></clipPath><style
       id="style1-1">
      .cls-1, .cls-2 {
        fill: #fff;
        stroke-width: 0px;
      }

      .cls-2 {
        fill-rule: evenodd;
      }
    </style><style
       id="style1-8">
      .cls-1, .cls-2 {
        fill: #fff;
        stroke-width: 0px;
      }

      .cls-2 {
        fill-rule: evenodd;
      }
    </style><style
       id="style1-5">
      .cls-1, .cls-2 {
        fill: #fff;
        stroke-width: 0px;
      }

      .cls-2 {
        fill-rule: evenodd;
      }
    </style><style
       id="style1-9">
      .cls-1, .cls-2 {
        fill: #fff;
        stroke-width: 0px;
      }

      .cls-2 {
        fill-rule: evenodd;
      }
    </style></defs><sodipodi:namedview
     id="namedview640"
     pagecolor="#ffffff"
     bordercolor="#000000"
     borderopacity="0.25"
     inkscape:showpageshadow="2"
     inkscape:pageopacity="0.0"
     inkscape:pagecheckerboard="0"
     inkscape:deskcolor="#d1d1d1"
     showgrid="false"
     inkscape:zoom="0.22562229"
     inkscape:cx="2207.2287"
     inkscape:cy="1349.6007"
     inkscape:window-width="1920"
     inkscape:window-height="1009"
     inkscape:window-x="-8"
     inkscape:window-y="-8"
     inkscape:window-maximized="1"
     inkscape:current-layer="g1" /><g
     id="g184"><path
       style="opacity:1"
       fill="#fefefe"
       d="m -0.5,-0.5 c 1301.67,0 2603.33,0 3905,0 0,688.333 0,1376.67 0,2065 -1301.67,0 -2603.33,0 -3905,0 0,-688.33 0,-1376.667 0,-2065 z"
       id="path182" /></g><g
     id="g188"><path
       style="opacity:1"
       fill="#000000"
       d="m 3564.5,2034.5 c 0.16,-3.02 0,-6.02 -0.5,-9 -1.71,0.81 -2.54,2.14 -2.5,4 -1076.33,0 -2152.67,0 -3229,0 0,1.67 0,3.33 0,5 -1,0 -2,0 -3,0 0,-560.67 0,-1121.333 0,-1682 -5.667,0 -11.333,0 -17,0 0,-43.333 0,-86.667 0,-130 5.667,0 11.333,0 17,0 0,-62.333 0,-124.6667 0,-187 1079.67,0 2159.33,0 3239,0 0,62 0,124 0,186 5.67,0 11.33,0 17,0 0,43.333 0,86.667 0,130 -5.67,0 -11.33,0 -17,0 0,561 0,1122 0,1683 -1.33,0 -2.67,0 -4,0 z"
       id="path186" /></g><g
     id="g192"><path
       style="opacity:1"
       fill="#4650bf"
       d="m 304.5,36.5 c 2.333,0 4.667,0 7,0 0,17 0,34 0,51 -2.333,0 -4.667,0 -7,0 0.16,-1.6992 -0.006,-3.3659 -0.5,-5 -5.445,6.4475 -11.945,7.6142 -19.5,3.5 -6.089,-7.2316 -7.589,-15.3983 -4.5,-24.5 4.102,-8.1309 10.602,-10.9643 19.5,-8.5 1.786,0.7845 3.286,1.9512 4.5,3.5 0.5,-6.6583 0.666,-13.325 0.5,-20 z"
       id="path190" /></g><g
     id="g196"><path
       style="opacity:1"
       fill="#dd2246"
       d="m 3594.5,36.5 c 7.34,-0.1663 14.67,3e-4 22,0.5 8.96,3.3191 11.46,9.4858 7.5,18.5 -1.94,2.8948 -4.44,5.2282 -7.5,7 5.41,6.4839 10.08,13.4839 14,21 -2.61,1.1517 -5.27,1.3184 -8,0.5 -3.75,-6.172 -7.75,-12.172 -12,-18 -2.85,-1.2886 -5.85,-1.7886 -9,-1.5 0,6.6667 0,13.3333 0,20 -2.33,0 -4.67,0 -7,0 0,-16 0,-32 0,-48 z"
       id="path194" /></g><g
     id="g200"><path
       style="opacity:1"
       fill="#4c58c4"
       d="m 67.5,38.5 c 8.6667,0 17.3333,0 26,0 0,2.3333 0,4.6667 0,7 -6,0 -12,0 -18,0 0,5 0,10 0,15 5.6667,0 11.3333,0 17,0 0.2564,2.2925 -0.0769,4.4592 -1,6.5 -5.3229,0.4994 -10.6563,0.666 -16,0.5 0,6.6667 0,13.3333 0,20 -2.6667,0 -5.3333,0 -8,0 0,-16.3333 0,-32.6667 0,-49 z"
       id="path198" /></g><g
     id="g204"><path
       style="opacity:1"
       fill="#fefefe"
       d="m 3408.5,274.5 c 0,-50 0,-100 0,-150 -51,0 -102,0 -153,0 0,36 0,72 0,108 -79,0.167 -158,0 -237,-0.5 -34.58,-22.209 -69.41,-44.042 -104.5,-65.5 -0.5,21.997 -0.67,43.997 -0.5,66 -94.33,0 -188.67,0 -283,0 0,-30 0,-60 0,-90 -136.67,0 -273.33,0 -410,0 0,30 0,60 0,90 -114.33,0 -228.67,0 -343,0 0,-30 0,-60 0,-90 -136.67,0 -273.33,0 -410,0 0,30 0,60 0,90 -90.67,0 -181.33,0 -272,0 -3.77,-51.406 -29.1,-87.573 -76,-108.5 -48.42,-17.046 -92.09,-9.046 -131,24 -23.921,23.016 -36.588,51.182 -38,84.5 -101.333,0 -202.667,0 -304,0 0,-34.333 0,-68.667 0,-103 -51,0 -102,0 -153,0 0,49.333 0,98.667 0,148 0,1.667 0,3.333 0,5 -52.333,0 -104.667,0 -157,0 0,-80 0,-160 0,-240 1074.33,0 2148.67,0 3223,0 0,78.333 0,156.667 0,235 -50.33,0 -100.67,0 -151,0 0,-1 0,-2 0,-3 z"
       id="path202" /></g><g
     id="g208"><path
       style="opacity:1"
       fill="#fef6f8"
       d="m 3601.5,42.5 c 4.01,-0.1655 8.01,0.0012 12,0.5 2.87,1.3929 4.2,3.7262 4,7 0.09,2.8139 -0.91,5.1473 -3,7 -4.23,1.2899 -8.56,1.7899 -13,1.5 0,-5.3333 0,-10.6667 0,-16 z"
       id="path206" /></g><g
     id="g212"><path
       style="opacity:1"
       fill="#df2c4b"
       d="m 3645.5,49.5 c 14.98,-1.6883 21.65,4.9784 20,20 -7.67,0 -15.33,0 -23,0 -0.34,6.9929 2.99,10.3262 10,10 3.58,0.2899 6.75,-0.7101 9.5,-3 0.76,2.2695 0.59,4.4361 -0.5,6.5 -18.75,5.9082 -27.59,-0.9252 -26.5,-20.5 1.53,-6.023 5.03,-10.3564 10.5,-13 z"
       id="path210" /></g><g
     id="g216"><path
       style="opacity:1"
       fill="#df2c4b"
       d="m 3717.5,49.5 c 14.98,-1.6883 21.65,4.9784 20,20 -7.67,0 -15.33,0 -23,0 -0.34,6.9929 2.99,10.3262 10,10 3.58,0.2899 6.75,-0.7101 9.5,-3 0.76,2.2695 0.59,4.4361 -0.5,6.5 -18.75,5.9082 -27.59,-0.9252 -26.5,-20.5 1.53,-6.023 5.03,-10.3564 10.5,-13 z"
       id="path214" /></g><g
     id="g220"><path
       style="opacity:1"
       fill="#df2946"
       d="m 3745.5,49.5 c 2.33,0 4.67,0 7,0 -0.16,2.3568 0,4.6902 0.5,7 2.14,-5.8219 6.31,-8.1553 12.5,-7 0,2.3333 0,4.6667 0,7 -4.87,-1.6498 -8.7,-0.3165 -11.5,4 -1.36,7.9295 -1.86,15.9295 -1.5,24 -2.33,0 -4.67,0 -7,0 0,-11.6667 0,-23.3333 0,-35 z"
       id="path218" /></g><g
     id="g224"><path
       style="opacity:1"
       fill="#de2c4a"
       d="m 3776.5,49.5 c 4.73,-0.2768 9.4,0.0565 14,1 1.33,2 1.33,4 0,6 -4.58,-2.415 -9.08,-2.415 -13.5,0 -0.74,1.9406 -0.58,3.7739 0.5,5.5 4.42,1.8065 8.75,3.8065 13,6 4.48,5.6686 3.81,10.6686 -2,15 -6.26,3.0742 -12.59,3.2408 -19,0.5 -1.15,-2.2649 -1.31,-4.5982 -0.5,-7 4.87,2.9666 10.03,3.6333 15.5,2 1.41,-2.4492 1.08,-4.6159 -1,-6.5 -3.67,-1.6667 -7.33,-3.3333 -11,-5 -2.86,-3.6814 -3.69,-7.8481 -2.5,-12.5 1.97,-2.0503 4.13,-3.717 6.5,-5 z"
       id="path222" /></g><g
     id="g228"><path
       style="opacity:1"
       fill="#df2c4b"
       d="m 3809.5,49.5 c 14.98,-1.6883 21.65,4.9784 20,20 -7.67,0 -15.33,0 -23,0 -0.34,6.9929 2.99,10.3262 10,10 3.58,0.2899 6.75,-0.7101 9.5,-3 0.76,2.2695 0.59,4.4361 -0.5,6.5 -18.75,5.9082 -27.59,-0.9252 -26.5,-20.5 1.53,-6.023 5.03,-10.3564 10.5,-13 z"
       id="path226" /></g><g
     id="g232"><path
       style="opacity:1"
       fill="#e1334e"
       d="m 3668.5,49.5 c 2.95,-0.2771 5.78,0.0562 8.5,1 3.31,9.2272 6.31,18.5605 9,28 2.39,-9.5066 5.39,-18.84 9,-28 2.47,-1.2766 4.97,-1.2766 7.5,0 -4.24,11.234 -8.58,22.4006 -13,33.5 -2.73,0.8184 -5.39,0.6517 -8,-0.5 -4.75,-11.2454 -9.08,-22.5787 -13,-34 z"
       id="path230" /></g><g
     id="g236"><path
       style="opacity:1"
       fill="#4a55c2"
       d="m 115.5,51.5 c 12.241,-0.0902 18.574,5.9098 19,18 -1.241,15.6389 -9.574,21.4722 -25,17.5 -6.905,-3.4656 -10.2384,-9.1322 -10,-17 0.562,-10.3901 5.896,-16.5568 16,-18.5 z"
       id="path234" /></g><g
     id="g240"><path
       style="opacity:1"
       fill="#4c56c7"
       d="m 142.5,52.5 c 2.667,0 5.333,0 8,0 -0.16,1.6992 0.006,3.3659 0.5,5 2.532,-4.4072 6.365,-6.0738 11.5,-5 0,2.3333 0,4.6667 0,7 -4.103,-0.7309 -7.603,0.2691 -10.5,3 -1.406,8.2492 -1.906,16.5826 -1.5,25 -2.667,0 -5.333,0 -8,0 0,-11.6667 0,-23.3333 0,-35 z"
       id="path238" /></g><g
     id="g244"><path
       style="opacity:1"
       fill="#4854c2"
       d="m 225.5,52.5 c 4.679,-0.1658 9.345,8e-4 14,0.5 2.5,1.1667 4.333,3 5.5,5.5 1.359,9.6094 1.859,19.2761 1.5,29 -2.667,0 -5.333,0 -8,0 0.157,-1.3734 -0.01,-2.7068 -0.5,-4 -4.615,5.0436 -10.115,6.2103 -16.5,3.5 -5.333,-6 -5.333,-12 0,-18 5.465,-2.0595 11.132,-3.2262 17,-3.5 -0.157,-6.5885 -3.49,-9.0885 -10,-7.5 -2.696,0.7648 -5.196,1.9315 -7.5,3.5 -1.578,-4.7137 -0.078,-7.7137 4.5,-9 z"
       id="path242" /></g><g
     id="g248"><path
       style="opacity:1"
       fill="#4c56c7"
       d="m 255.5,52.5 c 2.667,0 5.333,0 8,0 -0.16,1.6992 0.006,3.3659 0.5,5 2.532,-4.4072 6.365,-6.0738 11.5,-5 0,2.3333 0,4.6667 0,7 -4.103,-0.7309 -7.603,0.2691 -10.5,3 -1.406,8.2492 -1.906,16.5826 -1.5,25 -2.667,0 -5.333,0 -8,0 0,-11.6667 0,-23.3333 0,-35 z"
       id="path246" /></g><g
     id="g252"><path
       style="opacity:1"
       fill="#4d54c5"
       d="m 163.5,52.5 c 2.619,-0.2683 5.119,0.065 7.5,1 2.023,8.7603 4.357,17.427 7,26 2.607,-8.9848 5.107,-17.9848 7.5,-27 2.619,-0.2683 5.119,0.065 7.5,1 2.135,8.7344 4.468,17.401 7,26 1.855,-8.7518 4.021,-17.4185 6.5,-26 2.333,-1.3333 4.667,-1.3333 7,0 -3.167,11 -6.333,22 -9.5,33 -3,1.3333 -6,1.3333 -9,0 -1.568,-7.9497 -3.902,-15.6164 -7,-23 -2.275,7.9898 -4.442,15.9898 -6.5,24 -2.948,0.2771 -5.781,-0.0562 -8.5,-1 -3.791,-11.1636 -6.957,-22.497 -9.5,-34 z"
       id="path250" /></g><g
     id="g256"><path
       style="opacity:1"
       fill="#fff8f6"
       d="m 3647.5,54.5 c 7.02,-0.9677 10.69,2.0323 11,9 -5.33,0 -10.67,0 -16,0 -0.16,-1.3734 0.01,-2.7068 0.5,-4 1.71,-1.5375 3.21,-3.2041 4.5,-5 z"
       id="path254" /></g><g
     id="g260"><path
       style="opacity:1"
       fill="#fff8f6"
       d="m 3719.5,54.5 c 7.02,-0.9677 10.69,2.0323 11,9 -5.33,0 -10.67,0 -16,0 -0.16,-1.3734 0.01,-2.7068 0.5,-4 1.71,-1.5375 3.21,-3.2041 4.5,-5 z"
       id="path258" /></g><g
     id="g264"><path
       style="opacity:1"
       fill="#fff8f6"
       d="m 3811.5,54.5 c 7.02,-0.9677 10.69,2.0323 11,9 -5.33,0 -10.67,0 -16,0 -0.16,-1.3734 0.01,-2.7068 0.5,-4 1.71,-1.5375 3.21,-3.2041 4.5,-5 z"
       id="path262" /></g><g
     id="g268"><path
       style="opacity:1"
       fill="#fdfdff"
       d="m 112.5,58.5 c 3.018,-0.1646 6.018,0.002 9,0.5 2.167,0.8333 3.667,2.3333 4.5,4.5 0.999,5.5194 0.499,10.8527 -1.5,16 -7.024,4.8032 -12.524,3.4699 -16.5,-4 -1.732,-6.6596 -0.232,-12.3262 4.5,-17 z"
       id="path266" /></g><g
     id="g272"><path
       style="opacity:1"
       fill="#fdfdff"
       d="m 291.5,58.5 c 6.584,-1.6317 10.75,0.7017 12.5,7 0.767,4.0935 0.434,8.0935 -1,12 -5.743,6.9212 -11.076,6.5878 -16,-1 -1.774,-6.9769 -0.274,-12.9769 4.5,-18 z"
       id="path270" /></g><g
     id="g276"><path
       style="opacity:1"
       fill="#f9fbff"
       d="m 234.5,70.5 c 1.333,0 2.667,0 4,0 0.691,10.3343 -3.643,13.6676 -13,10 -1.02,-1.9325 -1.187,-3.9325 -0.5,-6 2.968,-2.0111 6.134,-3.3444 9.5,-4 z"
       id="path274" /></g><g
     id="g280"><path
       style="opacity:1"
       fill="#3f51b5"
       d="m 3408.5,274.5 c -25.8,-1.223 -51.63,-1.889 -77.5,-2 -23.55,0.04 -47.05,0.707 -70.5,2 -1.95,-0.224 -3.62,-0.891 -5,-2 0,-10.333 0,-20.667 0,-31 -79,-0.167 -158,0 -237,0.5 -34.58,22.541 -69.41,44.708 -104.5,66.5 -0.5,-22.331 -0.67,-44.664 -0.5,-67 -94.33,0 -188.67,0 -283,0 0,29.333 0,58.667 0,88 -136.67,0 -273.33,0 -410,0 0,-29.333 0,-58.667 0,-88 -114.33,0 -228.67,0 -343,0 0,29.333 0,58.667 0,88 -136.67,0 -273.33,0 -410,0 0,-29.333 0,-58.667 0,-88 -90.67,0 -181.33,0 -272,0 -4.07,51.002 -29.4,86.835 -76,107.5 -58.56,19.657 -107.4,5.824 -146.5,-41.5 -13.974,-19.754 -21.474,-41.754 -22.5,-66 -101.333,0 -202.667,0 -304,0 0,12 0,24 0,36 -2.51,0.498 -5.01,1.164 -7.5,2 -23.278,-1.298 -46.611,-1.965 -70,-2 -23.55,0.04 -47.05,0.707 -70.5,2 -1.955,-0.224 -3.621,-0.891 -5,-2 0,-49.333 0,-98.667 0,-148 51,0 102,0 153,0 0,34.333 0,68.667 0,103 101.333,0 202.667,0 304,0 1.412,-33.318 14.079,-61.484 38,-84.5 38.91,-33.046 82.58,-41.046 131,-24 46.9,20.927 72.23,57.094 76,108.5 90.67,0 181.33,0 272,0 0,-30 0,-60 0,-90 136.67,0 273.33,0 410,0 0,30 0,60 0,90 114.33,0 228.67,0 343,0 0,-30 0,-60 0,-90 136.67,0 273.33,0 410,0 0,30 0,60 0,90 94.33,0 188.67,0 283,0 -0.17,-22.003 0,-44.003 0.5,-66 35.09,21.458 69.92,43.291 104.5,65.5 79,0.5 158,0.667 237,0.5 0,-36 0,-72 0,-108 51,0 102,0 153,0 0,50 0,100 0,150 z"
       id="path278" /></g><g
     id="g284"><path
       style="opacity:1"
       fill="#fefefe"
       d="m 1070.5,123.5 c 2.67,0 5.33,0 8,0 -0.17,13.671 0,27.337 0.5,41 2.55,2.216 4.72,4.716 6.5,7.5 -7.62,8.625 -15.62,16.958 -24,25 6,6 12,12 18,18 0.67,0.667 1.33,0.667 2,0 7.51,-7.348 14.85,-14.848 22,-22.5 -4.15,-4.652 -8.48,-9.152 -13,-13.5 17.93,-7.798 35.93,-14.631 54,-20.5 -7.17,17.667 -14.33,35.333 -21.5,53 -4.17,-4.167 -8.33,-8.333 -12.5,-12.5 -0.67,-0.667 -1.33,-0.667 -2,0 -15.44,16.193 -31.1,32.193 -47,48 8.38,8.042 16.38,16.375 24,25 -7.62,8.625 -15.62,16.958 -24,25 5.5,5.5 11,11 16.5,16.5 0.5,11.995 0.67,23.995 0.5,36 -2.67,0 -5.33,0 -8,0 0.17,-11.005 0,-22.005 -0.5,-33 -6.54,-6.21 -12.71,-12.71 -18.5,-19.5 7.62,-8.625 15.62,-16.958 24,-25 -6.33,-6.333 -12.67,-12.667 -19,-19 -0.67,-0.667 -1.33,-0.667 -2,0 -15.5,15.5 -31,31 -46.5,46.5 -1.83,-1.833 -3.67,-3.667 -5.5,-5.5 24.18,-24.014 48.18,-48.18 72,-72.5 -7.86,-8.028 -15.53,-16.194 -23,-24.5 7.62,-8.625 15.62,-16.958 24,-25 -1.5,-1.5 -3,-3 -4.5,-4.5 -0.5,-14.663 -0.67,-29.33 -0.5,-44 z"
       id="path282" /></g><g
     id="g288"><path
       style="opacity:1"
       fill="#dd1b42"
       d="m 3632.5,141.5 c 2.33,0 4.67,0 7,0 0,16 0,32 0,48 -2.33,0 -4.67,0 -7,0 0,-16 0,-32 0,-48 z"
       id="path286" /></g><g
     id="g292"><path
       style="opacity:1"
       fill="#4855c6"
       d="m 110.5,143.5 c 2.619,-0.268 5.119,0.065 7.5,1 0.5,15.997 0.667,31.997 0.5,48 -2.667,0 -5.333,0 -8,0 0,-16.333 0,-32.667 0,-49 z"
       id="path290" /></g><g
     id="g296"><path
       style="opacity:1"
       fill="#df2a47"
       d="m 3780.5,144.5 c 0.98,3.125 1.31,6.458 1,10 3,0 6,0 9,0 0,2 0,4 0,6 -3,0 -6,0 -9,0 -0.17,7.008 0,14.008 0.5,21 1.92,2.938 4.42,3.605 7.5,2 0.97,1.896 1.3,3.896 1,6 -5.5,1.946 -10.33,0.946 -14.5,-3 -1.41,-8.584 -1.91,-17.25 -1.5,-26 -2,0 -4,0 -6,0 0,-2 0,-4 0,-6 2,0 4,0 6,0 0,-2.667 0,-5.333 0,-8 2.29,-0.095 4.29,-0.762 6,-2 z"
       id="path294" /></g><g
     id="g300"><path
       style="opacity:1"
       fill="#4b55c4"
       d="m 258.5,147.5 c 1.902,2.837 2.569,6.171 2,10 2.667,0 5.333,0 8,0 0,2 0,4 0,6 -2.667,0 -5.333,0 -8,0 -0.166,7.341 0,14.674 0.5,22 1.865,2.173 4.031,2.507 6.5,1 1.87,4.582 0.37,6.915 -4.5,7 -3.637,0.013 -6.637,-1.32 -9,-4 -1.41,-8.584 -1.91,-17.25 -1.5,-26 -2,0 -4,0 -6,0 0,-2 0,-4 0,-6 2,0 4,0 6,0 0,-2.667 0,-5.333 0,-8 2.286,-0.095 4.286,-0.762 6,-2 z"
       id="path298" /></g><g
     id="g304"><path
       style="opacity:1"
       fill="#de2545"
       d="m 3651.5,154.5 c 2.33,0 4.67,0 7,0 -0.16,2.027 0,4.027 0.5,6 4.18,-5.612 9.68,-7.445 16.5,-5.5 1.79,0.785 3.29,1.951 4.5,3.5 1.45,10.229 1.95,20.562 1.5,31 -2.33,0 -4.67,0 -7,0 0.17,-8.673 0,-17.34 -0.5,-26 -6.1,-4.694 -11.1,-3.694 -15,3 -0.5,7.659 -0.67,15.326 -0.5,23 -2.33,0 -4.67,0 -7,0 0,-11.667 0,-23.333 0,-35 z"
       id="path302" /></g><g
     id="g308"><path
       style="opacity:1"
       fill="#df2848"
       d="m 3691.5,154.5 c 2.33,0 4.67,0 7,0 -0.16,2.027 0,4.027 0.5,6 5.83,-6.57 12.66,-7.737 20.5,-3.5 4.34,3.87 6.01,8.703 5,14.5 -0.25,14.094 -7.25,19.927 -21,17.5 -1.79,-0.785 -3.29,-1.951 -4.5,-3.5 -0.5,6.658 -0.67,13.325 -0.5,20 -2.33,0 -4.67,0 -7,0 0,-17 0,-34 0,-51 z"
       id="path306" /></g><g
     id="g312"><path
       style="opacity:1"
       fill="#e13650"
       d="m 3731.5,154.5 c 2.67,0 5.33,0 8,0 -0.17,8.007 0,16.007 0.5,24 3.5,7.248 8.17,7.915 14,2 0.5,-8.66 0.67,-17.327 0.5,-26 2.67,0 5.33,0 8,0 0,11.667 0,23.333 0,35 -2.67,0 -5.33,0 -8,0 0.47,-4.47 -0.53,-4.97 -3,-1.5 -9.96,4.908 -16.46,2.074 -19.5,-8.5 -0.5,-8.327 -0.67,-16.66 -0.5,-25 z"
       id="path310" /></g><g
     id="g316"><path
       style="opacity:1"
       fill="#4955c5"
       d="m 129.5,157.5 c 2.667,0 5.333,0 8,0 -0.16,1.699 0.006,3.366 0.5,5 4.14,-4.711 9.306,-6.211 15.5,-4.5 4.021,1.868 6.187,5.035 6.5,9.5 0.5,8.327 0.666,16.66 0.5,25 -2.667,0 -5.333,0 -8,0 0.166,-8.34 0,-16.673 -0.5,-25 -1.018,-3.183 -3.185,-4.516 -6.5,-4 -3.677,-0.164 -6.177,1.503 -7.5,5 -0.5,7.993 -0.666,15.993 -0.5,24 -2.667,0 -5.333,0 -8,0 0,-11.667 0,-23.333 0,-35 z"
       id="path314" /></g><g
     id="g320"><path
       style="opacity:1"
       fill="#4a55c4"
       d="m 187.5,156.5 c 10.079,1.082 15.412,6.748 16,17 -0.231,5.397 -1.731,10.397 -4.5,15 -6.759,6.139 -13.759,6.472 -21,1 -0.5,6.325 -0.666,12.658 -0.5,19 -2.667,0 -5.333,0 -8,0 0,-17 0,-34 0,-51 2.667,0 5.333,0 8,0 -0.687,6.099 0.646,6.599 4,1.5 2.111,-0.845 4.111,-1.678 6,-2.5 z"
       id="path318" /></g><g
     id="g324"><path
       style="opacity:1"
       fill="#5154c6"
       d="m 209.5,157.5 c 2.667,0 5.333,0 8,0 -0.166,8.34 0,16.673 0.5,25 4.667,6.667 9.333,6.667 14,0 0.5,-8.327 0.666,-16.66 0.5,-25 2.667,0 5.333,0 8,0 0,11.667 0,23.333 0,35 -2.667,0 -5.333,0 -8,0 0.133,-4.772 -1.2,-4.938 -4,-0.5 -9.772,3.641 -15.938,0.475 -18.5,-9.5 -0.5,-8.327 -0.666,-16.66 -0.5,-25 z"
       id="path322" /></g><g
     id="g328"><path
       style="opacity:1"
       fill="#fffaf8"
       d="m 3703.5,160.5 c 3.02,-0.165 6.02,0.002 9,0.5 2.31,1.109 3.81,2.943 4.5,5.5 2.14,7.585 -0.02,13.418 -6.5,17.5 -4.77,1.361 -8.27,-0.139 -10.5,-4.5 -0.67,-4.667 -0.67,-9.333 0,-14 1,-1.823 2.16,-3.49 3.5,-5 z"
       id="path326" /></g><g
     id="g332"><path
       style="opacity:1"
       fill="#fdfcff"
       d="m 182.5,163.5 c 5.989,-1.435 10.155,0.565 12.5,6 0.658,4.072 0.325,8.072 -1,12 -4.825,7.561 -10.159,7.894 -16,1 -0.667,-4.333 -0.667,-8.667 0,-13 0.804,-2.646 2.304,-4.646 4.5,-6 z"
       id="path330" /></g><g
     id="g336"><path
       style="opacity:1"
       fill="#fefffe"
       d="m 3299.5,164.5 c 4.67,0 9.33,0 14,0 0,10.667 0,21.333 0,32 11,0 22,0 33,0 0,-10.667 0,-21.333 0,-32 4.67,0 9.33,0 14,0 0,24.667 0,49.333 0,74 -4.67,0 -9.33,0 -14,0 0,-10.667 0,-21.333 0,-32 -11,0 -22,0 -33,0 0,10.667 0,21.333 0,32 -4.67,0 -9.33,0 -14,0 0,-24.667 0,-49.333 0,-74 z"
       id="path334" /></g><g
     id="g340"><path
       style="opacity:1"
       fill="#fefffe"
       d="m 537.5,169.5 c 4.667,0 9.333,0 14,0 0,10.667 0,21.333 0,32 11,0 22,0 33,0 0,-10.667 0,-21.333 0,-32 4.667,0 9.333,0 14,0 0,24.667 0,49.333 0,74 -4.667,0 -9.333,0 -14,0 0,-10.667 0,-21.333 0,-32 -11,0 -22,0 -33,0 0,10.667 0,21.333 0,32 -4.667,0 -9.333,0 -14,0 0,-24.667 0,-49.333 0,-74 z"
       id="path338" /></g><g
     id="g344"><path
       style="opacity:1"
       fill="#f6f7fb"
       d="m 1547.5,179.5 c 2.36,-0.163 4.69,0.003 7,0.5 0.52,0.561 0.86,1.228 1,2 -14.66,35.112 -14.66,70.279 0,105.5 -0.21,2.388 -1.55,3.388 -4,3 -1.87,0.11 -3.37,-0.556 -4.5,-2 -18.14,-36.42 -17.97,-72.753 0.5,-109 z"
       id="path342" /></g><g
     id="g348"><path
       style="opacity:1"
       fill="#f7f8fc"
       d="m 1635.5,179.5 c 2.98,-0.396 5.65,0.271 8,2 17.4,35.768 17.23,71.435 -0.5,107 -2.15,1.944 -4.65,2.444 -7.5,1.5 -0.56,-0.725 -0.89,-1.558 -1,-2.5 14.61,-35.222 14.61,-70.389 0,-105.5 0.24,-0.902 0.58,-1.735 1,-2.5 z"
       id="path346" /></g><g
     id="g352"><path
       style="opacity:1"
       fill="#fdfdfe"
       d="m 2921.5,180.5 c 30.11,18.561 60.11,37.395 90,56.5 -29.67,19.167 -59.33,38.333 -89,57.5 -1,-37.994 -1.33,-75.994 -1,-114 z"
       id="path350" /></g><g
     id="g356"><path
       style="opacity:1"
       fill="#fefefe"
       d="m 1747.5,191.5 c 27.24,-2.26 41.57,10.24 43,37.5 -0.01,17.731 -8.01,30.064 -24,37 6.3,5.301 12.3,10.968 18,17 -5.33,0.667 -10.67,0.667 -16,0 -5.03,-4.699 -9.7,-9.699 -14,-15 -15.75,-0.421 -26.58,-7.921 -32.5,-22.5 -5.25,-16.768 -2.41,-31.934 8.5,-45.5 5.21,-3.939 10.88,-6.773 17,-8.5 z"
       id="path354" /></g><g
     id="g360"><path
       style="opacity:1"
       fill="#fefefe"
       d="m 1599.5,192.5 c 8.5,-0.566 16.83,0.267 25,2.5 1.13,4.079 1.3,8.245 0.5,12.5 -10.42,-5.099 -20.92,-5.265 -31.5,-0.5 -10.24,9.457 -13.41,20.957 -9.5,34.5 5.34,12.588 14.84,17.755 28.5,15.5 4.54,-0.512 8.7,-2.012 12.5,-4.5 0.83,4.041 0.66,8.041 -0.5,12 -11.95,4.874 -23.95,5.041 -36,0.5 -15.2,-9.219 -21.36,-22.719 -18.5,-40.5 3.13,-16.957 12.96,-27.624 29.5,-32 z"
       id="path358" /></g><g
     id="g364"><path
       style="opacity:1"
       fill="#fefeff"
       d="m 1671.5,192.5 c 13,0 26,0 39,0 0,3.333 0,6.667 0,10 -9,0 -18,0 -27,0 0,7 0,14 0,21 8.33,0 16.67,0 25,0 0,3.333 0,6.667 0,10 -8.33,0 -16.67,0 -25,0 0,7.333 0,14.667 0,22 9.67,0 19.33,0 29,0 0,3.333 0,6.667 0,10 -13.67,0 -27.33,0 -41,0 0,-24.333 0,-48.667 0,-73 z"
       id="path362" /></g><g
     id="g368"><path
       style="opacity:1"
       fill="#fefefe"
       d="m 2429.5,196.5 c 9.86,-0.583 19.53,0.417 29,3 0.17,4.346 0,8.679 -0.5,13 -15.44,-9.311 -29.44,-7.645 -42,5 -5.11,10.037 -5.77,20.37 -2,31 8.15,12.715 19.32,16.215 33.5,10.5 0.97,-5.741 1.31,-11.575 1,-17.5 -5.33,0 -10.67,0 -16,0 0,-3.333 0,-6.667 0,-10 9.33,0 18.67,0 28,0 0.63,12.086 -0.03,23.919 -2,35.5 -13.43,6.063 -27.09,6.73 -41,2 -14.93,-9.376 -21.1,-22.876 -18.5,-40.5 3.24,-17.406 13.41,-28.073 30.5,-32 z"
       id="path366" /></g><g
     id="g372"><path
       style="opacity:1"
       fill="#fefefe"
       d="m 2500.5,196.5 c 8.5,-0.566 16.83,0.267 25,2.5 1.13,4.079 1.3,8.245 0.5,12.5 -10.42,-5.099 -20.92,-5.265 -31.5,-0.5 -10.24,9.457 -13.41,20.957 -9.5,34.5 5.34,12.588 14.84,17.755 28.5,15.5 4.54,-0.512 8.7,-2.012 12.5,-4.5 0.83,4.041 0.66,8.041 -0.5,12 -11.95,4.874 -23.95,5.041 -36,0.5 -15.2,-9.219 -21.36,-22.719 -18.5,-40.5 3.13,-16.957 12.96,-27.624 29.5,-32 z"
       id="path370" /></g><g
     id="g376"><path
       style="opacity:1"
       fill="#fefefe"
       d="m 2353.5,197.5 c 4.67,0 9.33,0 14,0 8.31,24.418 17.31,48.585 27,72.5 -4.7,0.828 -9.37,0.662 -14,-0.5 -2.2,-5.256 -4.2,-10.589 -6,-16 -9.67,-1.333 -19.33,-1.333 -29,0 -1.91,5.555 -3.91,11.055 -6,16.5 -4.32,0.499 -8.65,0.666 -13,0.5 8.72,-24.436 17.72,-48.769 27,-73 z"
       id="path374" /></g><g
     id="g380"><path
       style="opacity:1"
       fill="#3f51b5"
       d="m 1753.5,201.5 c 16.59,1.436 24.59,10.602 24,27.5 -0.46,20.812 -10.79,29.479 -31,26 -10.11,-5.54 -14.78,-14.207 -14,-26 -0.5,-15.263 6.5,-24.43 21,-27.5 z"
       id="path378" /></g><g
     id="g384"><path
       style="opacity:1"
       fill="#4052b5"
       d="m 2359.5,211.5 c 3.54,9.79 7.21,19.623 11,29.5 -7.02,0.831 -14.02,0.664 -21,-0.5 3.74,-9.54 7.07,-19.207 10,-29 z"
       id="path382" /></g><g
     id="g388"><path
       style="opacity:1"
       fill="#fefffe"
       d="m 3568.5,228.5 c 3.67,0 7.33,0 11,0 0,38.333 0,76.667 0,115 -3.67,0 -7.33,0 -11,0 0,-38.333 0,-76.667 0,-115 z"
       id="path386" /></g><g
     id="g392"><path
       style="opacity:1"
       fill="#fefffe"
       d="m 318.5,229.5 c 3.667,0 7.333,0 11,0 0,38.333 0,76.667 0,115 -3.667,0 -7.333,0 -11,0 0,-38.333 0,-76.667 0,-115 z"
       id="path390" /></g><g
     id="g396"><path
       style="opacity:1"
       fill="#fefefe"
       d="m 3255.5,272.5 c 0,4.667 0,9.333 0,14 0,46.333 0,92.667 0,139 22.67,0 45.33,0 68,0 0,165.333 0,330.667 0,496 -56.67,0 -113.33,0 -170,0 -1.78,-53.765 -27.12,-91.598 -76,-113.5 -48.42,-17.046 -92.09,-9.046 -131,24 -25.4,24.335 -38.06,54.168 -38,89.5 -114.67,0 -229.33,0 -344,0 0.33,-22.01 0,-44.01 -1,-66 -35.47,21.635 -70.8,43.468 -106,65.5 -103,0.5 -206,0.667 -309,0.5 -4.07,-51.002 -29.4,-86.835 -76,-107.5 -48.42,-17.046 -92.09,-9.046 -131,24 -23.62,22.755 -36.29,50.589 -38,83.5 -154.33,0 -308.67,0 -463,0 0,-31 0,-62 0,-93 -68.33,0 -136.67,0 -205,0 0,31 0,62 0,93 -124,0 -248,0 -372,0 0.333,-22.01 0,-44.01 -1,-66 -35.466,21.635 -70.799,43.468 -106,65.5 -59.999,0.5 -119.999,0.667 -180,0.5 0,-163.667 0,-327.333 0,-491 23.333,0 46.667,0 70,0 0,-46.333 0,-92.667 0,-139 0,-4.667 0,-9.333 0,-14 0,-12 0,-24 0,-36 101.333,0 202.667,0 304,0 1.026,24.246 8.526,46.246 22.5,66 39.1,47.324 87.94,61.157 146.5,41.5 46.6,-20.665 71.93,-56.498 76,-107.5 90.67,0 181.33,0 272,0 0,29.333 0,58.667 0,88 136.67,0 273.33,0 410,0 0,-29.333 0,-58.667 0,-88 114.33,0 228.67,0 343,0 0,29.333 0,58.667 0,88 136.67,0 273.33,0 410,0 0,-29.333 0,-58.667 0,-88 94.33,0 188.67,0 283,0 -0.17,22.336 0,44.669 0.5,67 35.09,-21.792 69.92,-43.959 104.5,-66.5 79,-0.5 158,-0.667 237,-0.5 0,10.333 0,20.667 0,31 z"
       id="path394" /></g><g
     id="g400"><path
       style="opacity:1"
       fill="#0a0609"
       d="m 3730.5,308.5 c -0.54,0.06 -0.88,0.393 -1,1 10.65,0.999 21.31,1.332 32,1 0,3 0,6 0,9 -15,0 -30,0 -45,0 -0.32,-3.398 0.01,-6.732 1,-10 9.32,-8.819 18.49,-17.819 27.5,-27 3.6,-4.591 5.77,-9.757 6.5,-15.5 0.54,-6.125 -2.12,-10.125 -8,-12 -8.83,-1.419 -16.33,1.081 -22.5,7.5 -0.83,-3.711 -0.66,-7.378 0.5,-11 13.7,-8.878 26.54,-7.878 38.5,3 3.75,8.988 3.08,17.654 -2,26 -8.67,9.838 -17.84,19.172 -27.5,28 z"
       id="path398" /></g><g
     id="g404"><path
       style="opacity:1"
       fill="#100908"
       d="m 3660.5,246.5 c 10.4,-0.399 20.73,0.101 31,1.5 14.44,4.712 19.61,14.545 15.5,29.5 -3.64,6.978 -9.14,11.811 -16.5,14.5 -6.32,0.5 -12.66,0.666 -19,0.5 0,9 0,18 0,27 -3.67,0 -7.33,0 -11,0 0,-24.333 0,-48.667 0,-73 z"
       id="path402" /></g><g
     id="g408"><path
       style="opacity:1"
       fill="#08090e"
       d="m 222.5,248.5 c 1,0 2,0 3,0 0,21.667 0,43.333 0,65 5,0 10,0 15,0 0,3 0,6 0,9 -14,0 -28,0 -42,0 0,-3 0,-6 0,-9 5.333,0 10.667,0 16,0 0.167,-17.67 0,-35.336 -0.5,-53 -5.032,1.774 -10.199,3.108 -15.5,4 -0.284,-3.277 0.049,-6.443 1,-9.5 7.923,-1.727 15.59,-3.893 23,-6.5 z"
       id="path406" /></g><g
     id="g412"><path
       style="opacity:1"
       fill="#100908"
       d="m 138.5,249.5 c 10.398,-0.399 20.732,0.101 31,1.5 14.443,4.712 19.61,14.545 15.5,29.5 -3.643,6.978 -9.143,11.811 -16.5,14.5 -6.325,0.5 -12.658,0.666 -19,0.5 0,9 0,18 0,27 -3.667,0 -7.333,0 -11,0 0,-24.333 0,-48.667 0,-73 z"
       id="path410" /></g><g
     id="g416"><path
       style="opacity:1"
       fill="#f8f7f7"
       d="m 3671.5,256.5 c 5.34,-0.166 10.68,10e-4 16,0.5 8.02,3.204 10.85,9.037 8.5,17.5 -1.72,5.051 -5.22,7.885 -10.5,8.5 -4.65,0.499 -9.32,0.666 -14,0.5 0,-9 0,-18 0,-27 z"
       id="path414" /></g><g
     id="g420"><path
       style="opacity:1"
       fill="#f8f7f7"
       d="m 149.5,259.5 c 5.344,-0.166 10.677,10e-4 16,0.5 8.018,3.204 10.851,9.037 8.5,17.5 -1.717,5.051 -5.217,7.885 -10.5,8.5 -4.655,0.499 -9.321,0.666 -14,0.5 0,-9 0,-18 0,-27 z"
       id="path418" /></g><g
     id="g424"><path
       style="opacity:1"
       fill="#d91b46"
       d="m 3255.5,286.5 c 51,0 102,0 153,0 0,46.333 0,92.667 0,139 -25.33,0 -50.67,0 -76,0 0,168.333 0,336.667 0,505 -59.67,0 -119.33,0 -179,0 -8.42,59.252 -41.75,95.75 -100,109.5 -50.3,7.13 -91.13,-9.03 -122.5,-48.5 -12.93,-18.282 -20.43,-38.616 -22.5,-61 -114.67,0 -229.33,0 -344,0 0.33,22.01 0,44.01 -1,66 -35.47,-21.635 -70.8,-43.468 -106,-65.5 -103,-0.5 -206,-0.667 -309,-0.5 -3.77,51.406 -29.1,87.57 -76,108.5 -58.56,19.66 -107.4,5.82 -146.5,-41.5 -14.18,-20.051 -21.68,-42.385 -22.5,-67 -154.33,0 -308.67,0 -463,0 0,28.333 0,56.667 0,85 -68.33,0 -136.67,0 -205,0 0,-28.333 0,-56.667 0,-85 -124,0 -248,0 -372,0 0.333,22.01 0,44.01 -1,66 -35.466,-21.635 -70.799,-43.468 -106,-65.5 -62.999,-0.5 -125.999,-0.667 -189,-0.5 0,-166.667 0,-333.333 0,-500 -24.667,0 -49.333,0 -74,0 0,-46.333 0,-92.667 0,-139 51,0 102,0 153,0 0,46.333 0,92.667 0,139 -23.333,0 -46.667,0 -70,0 0,163.667 0,327.333 0,491 60.001,0.167 120.001,0 180,-0.5 35.201,-22.032 70.534,-43.865 106,-65.5 1,21.99 1.333,43.99 1,66 124,0 248,0 372,0 0,-31 0,-62 0,-93 68.33,0 136.67,0 205,0 0,31 0,62 0,93 154.33,0 308.67,0 463,0 1.71,-32.911 14.38,-60.745 38,-83.5 38.91,-33.046 82.58,-41.046 131,-24 46.6,20.665 71.93,56.498 76,107.5 103,0.167 206,0 309,-0.5 35.2,-22.032 70.53,-43.865 106,-65.5 1,21.99 1.33,43.99 1,66 114.67,0 229.33,0 344,0 -0.06,-35.332 12.6,-65.165 38,-89.5 38.91,-33.046 82.58,-41.046 131,-24 48.88,21.902 74.22,59.735 76,113.5 56.67,0 113.33,0 170,0 0,-165.333 0,-330.667 0,-496 -22.67,0 -45.33,0 -68,0 0,-46.333 0,-92.667 0,-139 z"
       id="path422" /></g><g
     id="g428"><path
       style="opacity:1"
       fill="#fefffe"
       d="m 3408.5,286.5 c 50.33,0 100.67,0 151,0 0,250.667 0,501.333 0,752 0,188 0,376 0,564 0,141 0,282 0,423 -1074.33,0 -2148.67,0 -3223,0 0,-100.33 0,-200.67 0,-301 0,-40.67 0,-81.33 0,-122 0,-188 0,-376 0,-564 0,-40.667 0,-81.333 0,-122 0,-189.333 0,-378.667 0,-568 0,-19 0,-38 0,-57 52.333,0 104.667,0 157,0 0,46.333 0,92.667 0,139 24.667,0 49.333,0 74,0 0,166.667 0,333.333 0,500 63.001,-0.167 126.001,0 189,0.5 35.201,22.032 70.534,43.865 106,65.5 1,-21.99 1.333,-43.99 1,-66 124,0 248,0 372,0 0,28.333 0,56.667 0,85 68.33,0 136.67,0 205,0 0,-28.333 0,-56.667 0,-85 154.33,0 308.67,0 463,0 0.82,24.615 8.32,46.949 22.5,67 39.1,47.32 87.94,61.16 146.5,41.5 46.9,-20.93 72.23,-57.094 76,-108.5 103,-0.167 206,0 309,0.5 35.2,22.032 70.53,43.865 106,65.5 1,-21.99 1.33,-43.99 1,-66 114.67,0 229.33,0 344,0 2.07,22.384 9.57,42.718 22.5,61 31.37,39.47 72.2,55.63 122.5,48.5 58.25,-13.75 91.58,-50.248 100,-109.5 59.67,0 119.33,0 179,0 0,-168.333 0,-336.667 0,-505 25.33,0 50.67,0 76,0 0,-46.333 0,-92.667 0,-139 z"
       id="path426" /></g><g
     id="g432"><path
       style="opacity:1"
       fill="#636566"
       d="m 3730.5,308.5 c 10.33,0.667 20.67,1.333 31,2 -10.69,0.332 -21.35,-10e-4 -32,-1 0.12,-0.607 0.46,-0.94 1,-1 z"
       id="path430" /></g><g
     id="g436"><path
       style="opacity:1"
       fill="#fefffe"
       d="m 3312.5,317.5 c 5,0 10,0 15,0 0,21 0,42 0,63 9.33,0 18.67,0 28,0 0,3.667 0,7.333 0,11 -14.33,0 -28.67,0 -43,0 0,-24.667 0,-49.333 0,-74 z"
       id="path434" /></g><g
     id="g440"><path
       style="opacity:1"
       fill="#fefffe"
       d="m 550.5,322.5 c 5,0 10,0 15,0 0,21 0,42 0,63 9.333,0 18.667,0 28,0 0,3.667 0,7.333 0,11 -14.333,0 -28.667,0 -43,0 0,-24.667 0,-49.333 0,-74 z"
       id="path438" /></g><g
     id="g444"><path
       style="opacity:1"
       fill="#111111"
       d="m 336.5,348.5 c 0,189.333 0,378.667 0,568 -0.934,-1.068 -1.268,-2.401 -1,-4 -1,0 -2,0 -3,0 0,-188 0,-376 0,-564 1.333,0 2.667,0 4,0 z"
       id="path442" /></g><g
     id="g448"><path
       style="opacity:1"
       fill="#4650bf"
       d="m 3824.5,363.5 c 2.33,0 4.67,0 7,0 0,17 0,34 0,51 -2.33,0 -4.67,0 -7,0 0.16,-1.699 -0.01,-3.366 -0.5,-5 -5.44,6.448 -11.94,7.614 -19.5,3.5 -6.09,-7.232 -7.59,-15.398 -4.5,-24.5 4.1,-8.131 10.6,-10.964 19.5,-8.5 1.79,0.785 3.29,1.951 4.5,3.5 0.5,-6.658 0.67,-13.325 0.5,-20 z"
       id="path446" /></g><g
     id="g452"><path
       style="opacity:1"
       fill="#4c58c4"
       d="m 3587.5,365.5 c 8.67,0 17.33,0 26,0 0,2.333 0,4.667 0,7 -6,0 -12,0 -18,0 0,5 0,10 0,15 5.67,0 11.33,0 17,0 0.26,2.292 -0.08,4.459 -1,6.5 -5.32,0.499 -10.66,0.666 -16,0.5 0,6.667 0,13.333 0,20 -2.67,0 -5.33,0 -8,0 0,-16.333 0,-32.667 0,-49 z"
       id="path450" /></g><g
     id="g456"><path
       style="opacity:1"
       fill="#dd2246"
       d="m 72.5,369.5 c 7.3409,-0.166 14.6742,0 22,0.5 8.962,3.319 11.462,9.486 7.5,18.5 -1.94,2.895 -4.4402,5.228 -7.5,7 5.4109,6.484 10.078,13.484 14,21 -2.606,1.152 -5.273,1.318 -8,0.5 -3.7519,-6.172 -7.7519,-12.172 -12,-18 -2.8508,-1.289 -5.8508,-1.789 -9,-1.5 0,6.667 0,13.333 0,20 -2.3333,0 -4.6667,0 -7,0 0,-16 0,-32 0,-48 z"
       id="path454" /></g><g
     id="g460"><path
       style="opacity:1"
       fill="#fef6f8"
       d="m 79.5,375.5 c 4.0138,-0.166 8.0138,10e-4 12,0.5 2.8661,1.393 4.1994,3.726 4,7 0.0924,2.814 -0.9076,5.147 -3,7 -4.2305,1.29 -8.5638,1.79 -13,1.5 0,-5.333 0,-10.667 0,-16 z"
       id="path458" /></g><g
     id="g464"><path
       style="opacity:1"
       fill="#4a55c2"
       d="m 3635.5,378.5 c 12.24,-0.09 18.57,5.91 19,18 -1.24,15.639 -9.57,21.472 -25,17.5 -6.91,-3.466 -10.24,-9.132 -10,-17 0.56,-10.39 5.9,-16.557 16,-18.5 z"
       id="path462" /></g><g
     id="g468"><path
       style="opacity:1"
       fill="#4c56c7"
       d="m 3662.5,379.5 c 2.67,0 5.33,0 8,0 -0.16,1.699 0.01,3.366 0.5,5 2.53,-4.407 6.36,-6.074 11.5,-5 0,2.333 0,4.667 0,7 -4.1,-0.731 -7.6,0.269 -10.5,3 -1.41,8.249 -1.91,16.583 -1.5,25 -2.67,0 -5.33,0 -8,0 0,-11.667 0,-23.333 0,-35 z"
       id="path466" /></g><g
     id="g472"><path
       style="opacity:1"
       fill="#4854c2"
       d="m 3745.5,379.5 c 4.68,-0.166 9.35,10e-4 14,0.5 2.5,1.167 4.33,3 5.5,5.5 1.36,9.609 1.86,19.276 1.5,29 -2.67,0 -5.33,0 -8,0 0.16,-1.373 -0.01,-2.707 -0.5,-4 -4.61,5.044 -10.11,6.21 -16.5,3.5 -5.33,-6 -5.33,-12 0,-18 5.47,-2.06 11.13,-3.226 17,-3.5 -0.16,-6.588 -3.49,-9.088 -10,-7.5 -2.7,0.765 -5.2,1.932 -7.5,3.5 -1.58,-4.714 -0.08,-7.714 4.5,-9 z"
       id="path470" /></g><g
     id="g476"><path
       style="opacity:1"
       fill="#4c56c7"
       d="m 3775.5,379.5 c 2.67,0 5.33,0 8,0 -0.16,1.699 0.01,3.366 0.5,5 2.53,-4.407 6.36,-6.074 11.5,-5 0,2.333 0,4.667 0,7 -4.1,-0.731 -7.6,0.269 -10.5,3 -1.41,8.249 -1.91,16.583 -1.5,25 -2.67,0 -5.33,0 -8,0 0,-11.667 0,-23.333 0,-35 z"
       id="path474" /></g><g
     id="g480"><path
       style="opacity:1"
       fill="#4d54c5"
       d="m 3683.5,379.5 c 2.62,-0.268 5.12,0.065 7.5,1 2.02,8.76 4.36,17.427 7,26 2.61,-8.985 5.11,-17.985 7.5,-27 2.62,-0.268 5.12,0.065 7.5,1 2.13,8.734 4.47,17.401 7,26 1.85,-8.752 4.02,-17.419 6.5,-26 2.33,-1.333 4.67,-1.333 7,0 -3.17,11 -6.33,22 -9.5,33 -3,1.333 -6,1.333 -9,0 -1.57,-7.95 -3.9,-15.616 -7,-23 -2.28,7.99 -4.44,15.99 -6.5,24 -2.95,0.277 -5.78,-0.056 -8.5,-1 -3.79,-11.164 -6.96,-22.497 -9.5,-34 z"
       id="path478" /></g><g
     id="g484"><path
       style="opacity:1"
       fill="#df2c4b"
       d="m 123.5,382.5 c 14.978,-1.688 21.645,4.978 20,20 -7.667,0 -15.333,0 -23,0 -0.34,6.993 2.993,10.326 10,10 3.584,0.29 6.75,-0.71 9.5,-3 0.758,2.269 0.591,4.436 -0.5,6.5 -18.754,5.908 -27.587,-0.925 -26.5,-20.5 1.534,-6.023 5.034,-10.356 10.5,-13 z"
       id="path482" /></g><g
     id="g488"><path
       style="opacity:1"
       fill="#df2c4b"
       d="m 195.5,382.5 c 14.978,-1.688 21.645,4.978 20,20 -7.667,0 -15.333,0 -23,0 -0.34,6.993 2.993,10.326 10,10 3.584,0.29 6.75,-0.71 9.5,-3 0.758,2.269 0.591,4.436 -0.5,6.5 -18.754,5.908 -27.587,-0.925 -26.5,-20.5 1.534,-6.023 5.034,-10.356 10.5,-13 z"
       id="path486" /></g><g
     id="g492"><path
       style="opacity:1"
       fill="#df2946"
       d="m 223.5,382.5 c 2.333,0 4.667,0 7,0 -0.163,2.357 0.003,4.69 0.5,7 2.139,-5.822 6.305,-8.155 12.5,-7 0,2.333 0,4.667 0,7 -4.868,-1.65 -8.701,-0.316 -11.5,4 -1.363,7.929 -1.863,15.929 -1.5,24 -2.333,0 -4.667,0 -7,0 0,-11.667 0,-23.333 0,-35 z"
       id="path490" /></g><g
     id="g496"><path
       style="opacity:1"
       fill="#de2c4a"
       d="m 254.5,382.5 c 4.733,-0.277 9.4,0.057 14,1 1.333,2 1.333,4 0,6 -4.583,-2.415 -9.083,-2.415 -13.5,0 -0.743,1.941 -0.576,3.774 0.5,5.5 4.418,1.806 8.751,3.806 13,6 4.476,5.669 3.809,10.669 -2,15 -6.259,3.074 -12.592,3.241 -19,0.5 -1.147,-2.265 -1.314,-4.598 -0.5,-7 4.866,2.967 10.032,3.633 15.5,2 1.41,-2.449 1.076,-4.616 -1,-6.5 -3.667,-1.667 -7.333,-3.333 -11,-5 -2.86,-3.681 -3.693,-7.848 -2.5,-12.5 1.965,-2.05 4.132,-3.717 6.5,-5 z"
       id="path494" /></g><g
     id="g500"><path
       style="opacity:1"
       fill="#df2c4b"
       d="m 287.5,382.5 c 14.978,-1.688 21.645,4.978 20,20 -7.667,0 -15.333,0 -23,0 -0.34,6.993 2.993,10.326 10,10 3.584,0.29 6.75,-0.71 9.5,-3 0.758,2.269 0.591,4.436 -0.5,6.5 -18.754,5.908 -27.587,-0.925 -26.5,-20.5 1.534,-6.023 5.034,-10.356 10.5,-13 z"
       id="path498" /></g><g
     id="g504"><path
       style="opacity:1"
       fill="#e1334e"
       d="m 146.5,382.5 c 2.948,-0.277 5.781,0.056 8.5,1 3.307,9.227 6.307,18.561 9,28 2.391,-9.507 5.391,-18.84 9,-28 2.466,-1.277 4.966,-1.277 7.5,0 -4.243,11.234 -8.576,22.401 -13,33.5 -2.727,0.818 -5.394,0.652 -8,-0.5 -4.745,-11.245 -9.079,-22.579 -13,-34 z"
       id="path502" /></g><g
     id="g508"><path
       style="opacity:1"
       fill="#fdfdff"
       d="m 3632.5,385.5 c 3.02,-0.165 6.02,0.002 9,0.5 2.17,0.833 3.67,2.333 4.5,4.5 1,5.519 0.5,10.853 -1.5,16 -7.02,4.803 -12.52,3.47 -16.5,-4 -1.73,-6.66 -0.23,-12.326 4.5,-17 z"
       id="path506" /></g><g
     id="g512"><path
       style="opacity:1"
       fill="#fdfdff"
       d="m 3811.5,385.5 c 6.58,-1.632 10.75,0.702 12.5,7 0.77,4.094 0.43,8.094 -1,12 -5.74,6.921 -11.08,6.588 -16,-1 -1.77,-6.977 -0.27,-12.977 4.5,-18 z"
       id="path510" /></g><g
     id="g516"><path
       style="opacity:1"
       fill="#fff8f6"
       d="m 125.5,387.5 c 7.025,-0.968 10.692,2.032 11,9 -5.333,0 -10.667,0 -16,0 -0.157,-1.373 0.01,-2.707 0.5,-4 1.707,-1.537 3.207,-3.204 4.5,-5 z"
       id="path514" /></g><g
     id="g520"><path
       style="opacity:1"
       fill="#fff8f6"
       d="m 197.5,387.5 c 7.025,-0.968 10.692,2.032 11,9 -5.333,0 -10.667,0 -16,0 -0.157,-1.373 0.01,-2.707 0.5,-4 1.707,-1.537 3.207,-3.204 4.5,-5 z"
       id="path518" /></g><g
     id="g524"><path
       style="opacity:1"
       fill="#fff8f6"
       d="m 289.5,387.5 c 7.025,-0.968 10.692,2.032 11,9 -5.333,0 -10.667,0 -16,0 -0.157,-1.373 0.01,-2.707 0.5,-4 1.707,-1.537 3.207,-3.204 4.5,-5 z"
       id="path522" /></g><g
     id="g528"><path
       style="opacity:1"
       fill="#f9fbff"
       d="m 3754.5,397.5 c 1.33,0 2.67,0 4,0 0.69,10.334 -3.64,13.668 -13,10 -1.02,-1.932 -1.19,-3.932 -0.5,-6 2.97,-2.011 6.13,-3.344 9.5,-4 z"
       id="path526" /></g><g
     id="g532"><path
       style="opacity:1"
       fill="#4853c0"
       d="m 3618.5,470.5 c 13.92,-2.295 23.42,3.038 28.5,16 3.64,14.45 -0.86,25.284 -13.5,32.5 -15.21,4.164 -25.71,-1.002 -31.5,-15.5 -3.3,-15.704 2.2,-26.704 16.5,-33 z"
       id="path530" /></g><g
     id="g536"><path
       style="opacity:1"
       fill="#de2749"
       d="m 96.5,473.5 c 21.811,-1.021 31.311,9.312 28.5,31 -3.865,14.017 -13.031,20.184 -27.5,18.5 -8.7373,-2.404 -14.5706,-7.904 -17.5,-16.5 -3.4659,-15.736 2.0341,-26.736 16.5,-33 z"
       id="path534" /></g><g
     id="g540"><path
       style="opacity:1"
       fill="#4b55c4"
       d="m 3703.5,474.5 c 1.9,2.837 2.57,6.171 2,10 2.67,0 5.33,0 8,0 0,2 0,4 0,6 -2.67,0 -5.33,0 -8,0 -0.17,7.341 0,14.674 0.5,22 1.86,2.173 4.03,2.507 6.5,1 1.87,4.582 0.37,6.915 -4.5,7 -3.64,0.013 -6.64,-1.32 -9,-4 -1.41,-8.584 -1.91,-17.25 -1.5,-26 -2,0 -4,0 -6,0 0,-2 0,-4 0,-6 2,0 4,0 6,0 0,-2.667 0,-5.333 0,-8 2.29,-0.095 4.29,-0.762 6,-2 z"
       id="path538" /></g><g
     id="g544"><path
       style="opacity:1"
       fill="#4b55c4"
       d="m 3809.5,474.5 c 1.9,2.837 2.57,6.171 2,10 2.67,0 5.33,0 8,0 0,2 0,4 0,6 -2.67,0 -5.33,0 -8,0 -0.17,7.341 0,14.674 0.5,22 1.86,2.173 4.03,2.507 6.5,1 1.87,4.582 0.37,6.915 -4.5,7 -3.64,0.013 -6.64,-1.32 -9,-4 -1.41,-8.584 -1.91,-17.25 -1.5,-26 -2,0 -4,0 -6,0 0,-2 0,-4 0,-6 2,0 4,0 6,0 0,-2.667 0,-5.333 0,-8 2.29,-0.095 4.29,-0.762 6,-2 z"
       id="path542" /></g><g
     id="g548"><path
       style="opacity:1"
       fill="#fdfdff"
       d="m 3619.5,477.5 c 8.4,-2.043 14.57,0.624 18.5,8 2.27,7.484 1.94,14.817 -1,22 -8.72,8.214 -17.05,7.881 -25,-1 -3.8,-8.727 -3.13,-17.06 2,-25 1.81,-1.477 3.65,-2.81 5.5,-4 z"
       id="path546" /></g><g
     id="g552"><path
       style="opacity:1"
       fill="#df2a47"
       d="m 181.5,477.5 c 0.979,3.125 1.313,6.458 1,10 3,0 6,0 9,0 0,2 0,4 0,6 -3,0 -6,0 -9,0 -0.166,7.008 0,14.008 0.5,21 1.92,2.938 4.42,3.605 7.5,2 0.966,1.896 1.299,3.896 1,6 -5.499,1.946 -10.333,0.946 -14.5,-3 -1.41,-8.584 -1.91,-17.25 -1.5,-26 -2,0 -4,0 -6,0 0,-2 0,-4 0,-6 2,0 4,0 6,0 0,-2.667 0,-5.333 0,-8 2.286,-0.095 4.286,-0.762 6,-2 z"
       id="path550" /></g><g
     id="g556"><path
       style="opacity:1"
       fill="#df2a47"
       d="m 287.5,477.5 c 0.979,3.125 1.313,6.458 1,10 3,0 6,0 9,0 0,2 0,4 0,6 -3,0 -6,0 -9,0 -0.166,7.008 0,14.008 0.5,21 1.92,2.938 4.42,3.605 7.5,2 0.966,1.896 1.299,3.896 1,6 -5.499,1.946 -10.333,0.946 -14.5,-3 -1.41,-8.584 -1.91,-17.25 -1.5,-26 -2,0 -4,0 -6,0 0,-2 0,-4 0,-6 2,0 4,0 6,0 0,-2.667 0,-5.333 0,-8 2.286,-0.095 4.286,-0.762 6,-2 z"
       id="path554" /></g><g
     id="g560"><path
       style="opacity:1"
       fill="#fffcfc"
       d="m 101.5,479.5 c 11.008,1.151 16.341,7.318 16,18.5 0.257,13.744 -6.409,19.744 -20,18 -2.6024,-0.883 -4.7691,-2.383 -6.5,-4.5 -4.2,-8.193 -4.5333,-16.526 -1,-25 2.9429,-4.044 6.7762,-6.378 11.5,-7 z"
       id="path558" /></g><g
     id="g564"><path
       style="opacity:1"
       fill="#4a55c4"
       d="m 3738.5,483.5 c 10.08,1.082 15.41,6.748 16,17 -0.23,5.397 -1.73,10.397 -4.5,15 -6.76,6.139 -13.76,6.472 -21,1 -0.5,6.325 -0.67,12.658 -0.5,19 -2.67,0 -5.33,0 -8,0 0,-17 0,-34 0,-51 2.67,0 5.33,0 8,0 -0.69,6.099 0.65,6.599 4,1.5 2.11,-0.845 4.11,-1.678 6,-2.5 z"
       id="path562" /></g><g
     id="g568"><path
       style="opacity:1"
       fill="#5154c6"
       d="m 3654.5,484.5 c 2.67,0 5.33,0 8,0 -0.17,8.34 0,16.673 0.5,25 4.67,6.667 9.33,6.667 14,0 0.5,-8.327 0.67,-16.66 0.5,-25 2.67,0 5.33,0 8,0 0,11.667 0,23.333 0,35 -2.67,0 -5.33,0 -8,0 0.13,-4.772 -1.2,-4.938 -4,-0.5 -9.77,3.641 -15.94,0.475 -18.5,-9.5 -0.5,-8.327 -0.67,-16.66 -0.5,-25 z"
       id="path566" /></g><g
     id="g572"><path
       style="opacity:1"
       fill="#5154c6"
       d="m 3760.5,484.5 c 2.67,0 5.33,0 8,0 -0.17,8.34 0,16.673 0.5,25 4.67,6.667 9.33,6.667 14,0 0.5,-8.327 0.67,-16.66 0.5,-25 2.67,0 5.33,0 8,0 0,11.667 0,23.333 0,35 -2.67,0 -5.33,0 -8,0 0.13,-4.772 -1.2,-4.938 -4,-0.5 -9.77,3.641 -15.94,0.475 -18.5,-9.5 -0.5,-8.327 -0.67,-16.66 -0.5,-25 z"
       id="path570" /></g><g
     id="g576"><path
       style="opacity:1"
       fill="#df2848"
       d="m 198.5,487.5 c 2.333,0 4.667,0 7,0 -0.162,2.027 0.005,4.027 0.5,6 5.825,-6.57 12.658,-7.737 20.5,-3.5 4.344,3.87 6.011,8.703 5,14.5 -0.252,14.094 -7.252,19.927 -21,17.5 -1.786,-0.785 -3.286,-1.951 -4.5,-3.5 -0.5,6.658 -0.666,13.325 -0.5,20 -2.333,0 -4.667,0 -7,0 0,-17 0,-34 0,-51 z"
       id="path574" /></g><g
     id="g580"><path
       style="opacity:1"
       fill="#e13650"
       d="m 132.5,487.5 c 2.667,0 5.333,0 8,0 -0.166,8.007 0,16.007 0.5,24 3.501,7.248 8.168,7.915 14,2 0.5,-8.66 0.666,-17.327 0.5,-26 2.667,0 5.333,0 8,0 0,11.667 0,23.333 0,35 -2.667,0 -5.333,0 -8,0 0.47,-4.47 -0.53,-4.97 -3,-1.5 -9.956,4.908 -16.456,2.074 -19.5,-8.5 -0.5,-8.327 -0.666,-16.66 -0.5,-25 z"
       id="path578" /></g><g
     id="g584"><path
       style="opacity:1"
       fill="#e13650"
       d="m 238.5,487.5 c 2.667,0 5.333,0 8,0 -0.166,8.007 0,16.007 0.5,24 3.501,7.248 8.168,7.915 14,2 0.5,-8.66 0.666,-17.327 0.5,-26 2.667,0 5.333,0 8,0 0,11.667 0,23.333 0,35 -2.667,0 -5.333,0 -8,0 0.47,-4.47 -0.53,-4.97 -3,-1.5 -9.956,4.908 -16.456,2.074 -19.5,-8.5 -0.5,-8.327 -0.666,-16.66 -0.5,-25 z"
       id="path582" /></g><g
     id="g588"><path
       style="opacity:1"
       fill="#fdfcff"
       d="m 3733.5,490.5 c 5.99,-1.435 10.16,0.565 12.5,6 0.66,4.072 0.32,8.072 -1,12 -4.83,7.561 -10.16,7.894 -16,1 -0.67,-4.333 -0.67,-8.667 0,-13 0.8,-2.646 2.3,-4.646 4.5,-6 z"
       id="path586" /></g><g
     id="g592"><path
       style="opacity:1"
       fill="#fffaf8"
       d="m 210.5,493.5 c 3.018,-0.165 6.018,0.002 9,0.5 2.315,1.109 3.815,2.943 4.5,5.5 2.143,7.585 -0.024,13.418 -6.5,17.5 -4.774,1.361 -8.274,-0.139 -10.5,-4.5 -0.667,-4.667 -0.667,-9.333 0,-14 0.997,-1.823 2.164,-3.49 3.5,-5 z"
       id="path590" /></g><g
     id="g596"><path
       style="opacity:1"
       fill="#fefffe"
       d="m 3028.5,808.5 c 2.67,0 5.33,0 8,0 -0.17,13.337 0,26.671 0.5,40 2.55,2.216 4.72,4.716 6.5,7.5 -7.62,8.625 -15.62,16.958 -24,25 6,6 12,12 18,18 0.67,0.667 1.33,0.667 2,0 7.51,-7.348 14.85,-14.848 22,-22.5 -4.15,-4.652 -8.48,-9.152 -13,-13.5 17.93,-7.798 35.93,-14.631 54,-20.5 -7.17,17.667 -14.33,35.333 -21.5,53 -4.17,-4.167 -8.33,-8.333 -12.5,-12.5 -0.67,-0.667 -1.33,-0.667 -2,0 -15.44,16.193 -31.1,32.193 -47,48 8.38,8.042 16.38,16.375 24,25 -7.62,8.625 -15.62,16.958 -24,25 5.5,5.5 11,11 16.5,16.5 0.5,11.66 0.67,23.33 0.5,35 -2.67,0 -5.33,0 -8,0 0.17,-10.67 0,-21.34 -0.5,-32 -6.54,-6.21 -12.71,-12.71 -18.5,-19.5 7.62,-8.625 15.62,-16.958 24,-25 -6.33,-6.333 -12.67,-12.667 -19,-19 -0.67,-0.667 -1.33,-0.667 -2,0 -15.5,15.5 -31,31 -46.5,46.5 -1.83,-1.833 -3.67,-3.667 -5.5,-5.5 24.18,-24.014 48.18,-48.18 72,-72.5 -7.86,-8.028 -15.53,-16.194 -23,-24.5 7.62,-8.625 15.62,-16.958 24,-25 -1.5,-1.5 -3,-3 -4.5,-4.5 -0.5,-14.329 -0.67,-28.663 -0.5,-43 z"
       id="path594" /></g><g
     id="g600"><path
       style="opacity:1"
       fill="#fefffe"
       d="m 2023.5,814.5 c 2.67,0 5.33,0 8,0 -0.17,13.337 0,26.671 0.5,40 2.55,2.216 4.72,4.716 6.5,7.5 -7.62,8.625 -15.62,16.958 -24,25 6,6 12,12 18,18 0.67,0.667 1.33,0.667 2,0 7.51,-7.348 14.85,-14.848 22,-22.5 -4.15,-4.652 -8.48,-9.152 -13,-13.5 17.93,-7.798 35.93,-14.631 54,-20.5 -7.17,17.667 -14.33,35.333 -21.5,53 -4.17,-4.167 -8.33,-8.333 -12.5,-12.5 -0.67,-0.667 -1.33,-0.667 -2,0 -15.44,16.193 -31.1,32.193 -47,48 8.38,8.042 16.38,16.375 24,25 -7.62,8.625 -15.62,16.958 -24,25 5.5,5.5 11,11 16.5,16.5 0.5,11.66 0.67,23.33 0.5,35 -2.67,0 -5.33,0 -8,0 0.17,-10.67 0,-21.34 -0.5,-32 -6.54,-6.21 -12.71,-12.71 -18.5,-19.5 7.62,-8.625 15.62,-16.958 24,-25 -6.33,-6.333 -12.67,-12.667 -19,-19 -0.67,-0.667 -1.33,-0.667 -2,0 -15.5,15.5 -31,31 -46.5,46.5 -1.83,-1.833 -3.67,-3.667 -5.5,-5.5 24.18,-24.014 48.18,-48.18 72,-72.5 -7.86,-8.028 -15.53,-16.194 -23,-24.5 7.62,-8.625 15.62,-16.958 24,-25 -1.5,-1.5 -3,-3 -4.5,-4.5 -0.5,-14.329 -0.67,-28.663 -0.5,-43 z"
       id="path598" /></g><g
     id="g604"><path
       style="opacity:1"
       fill="#fdfdfe"
       d="m 854.5,868.5 c 1.164,38.164 1.331,76.498 0.5,115 -30.5,-19.167 -61,-38.333 -91.5,-57.5 30.735,-18.691 61.069,-37.858 91,-57.5 z"
       id="path602" /></g><g
     id="g608"><path
       style="opacity:1"
       fill="#fdfdfe"
       d="m 2555.5,868.5 c 1.16,38.164 1.33,76.498 0.5,115 -30.5,-19.167 -61,-38.333 -91.5,-57.5 30.74,-18.691 61.07,-37.858 91,-57.5 z"
       id="path606" /></g><g
     id="g612"><path
       style="opacity:1"
       fill="#fefffe"
       d="m 1358.5,882.5 c 27.24,-2.26 41.57,10.24 43,37.5 -0.01,17.731 -8.01,30.064 -24,37 6.3,5.301 12.3,10.968 18,17 -5.33,0.667 -10.67,0.667 -16,0 -5.03,-4.699 -9.7,-9.699 -14,-15 -22.37,-2.698 -34.03,-15.364 -35,-38 -0.29,-20.165 9.04,-32.998 28,-38.5 z"
       id="path610" /></g><g
     id="g616"><path
       style="opacity:1"
       fill="#fefffe"
       d="m 1282.5,883.5 c 13,0 26,0 39,0 0,3.333 0,6.667 0,10 -9,0 -18,0 -27,0 0,7 0,14 0,21 8.33,0 16.67,0 25,0 0,3.333 0,6.667 0,10 -8.33,0 -16.67,0 -25,0 0,7.333 0,14.667 0,22 9.67,0 19.33,0 29,0 0,3.333 0,6.667 0,10 -13.67,0 -27.33,0 -41,0 0,-24.333 0,-48.667 0,-73 z"
       id="path614" /></g><g
     id="g620"><path
       style="opacity:1"
       fill="#d91b45"
       d="m 1364.5,892.5 c 16.59,1.436 24.59,10.602 24,27.5 -0.46,20.812 -10.79,29.479 -31,26 -10.11,-5.54 -14.78,-14.207 -14,-26 -0.5,-15.263 6.5,-24.43 21,-27.5 z"
       id="path618" /></g><g
     id="g624"><path
       style="opacity:1"
       fill="#111111"
       d="m 336.5,1038.5 c 0,188 0,376 0,564 -0.934,-1.07 -1.268,-2.4 -1,-4 -1,0 -2,0 -3,0 0,-186.67 0,-373.33 0,-560 1.333,0 2.667,0 4,0 z"
       id="path622" /></g><g
     id="g628"><path
       style="opacity:1"
       fill="#111111"
       d="m 3559.5,1038.5 c 1.33,0 2.67,0 4,0 0,186.67 0,373.33 0,560 -1,0 -2,0 -3,0 0.27,1.6 -0.07,2.93 -1,4 0,-188 0,-376 0,-564 z"
       id="path626" /></g><g
     id="g632"
     style="display:none"><path
       style="opacity:1"
       fill="#111111"
       d="m 336.5,1724.5 c 0,100.33 0,200.67 0,301 -1.333,0 -2.667,0 -4,0 0,-100.33 0,-200.67 0,-301 1.333,0 2.667,0 4,0 z"
       id="path630" /></g><g
     id="g636"><path
       style="opacity:1"
       fill="#1a1a1a"
       d="m 3564.5,2034.5 c -1077.33,0 -2154.67,0 -3232,0 0,-1.67 0,-3.33 0,-5 1076.33,0 2152.67,0 3229,0 -0.04,-1.86 0.79,-3.19 2.5,-4 0.5,2.98 0.66,5.98 0.5,9 z"
       id="path634" /></g><rect
     style="fill:#ffffff;fill-opacity:0;stroke:#000000;stroke-width:6;stroke-opacity:0"
     id="rect14619"
     width="222.51605"
     height="372.9494"
     x="457.56824"
     y="94.020866"
     module="splitOption" /><rect
     style="clip-rule:evenodd;fill:#ffffff;fill-opacity:0;fill-rule:evenodd;stroke:#000000;stroke-width:6;image-rendering:optimizeQuality;shape-rendering:geometricPrecision;text-rendering:geometricPrecision;stroke-opacity:0"
     id="rect14619-0"
     width="222.51605"
     height="372.9494"
     x="3220.2146"
     y="89.319847"
     module="splitOption" /><rect
     style="clip-rule:evenodd;fill:#ffffff;fill-opacity:0;fill-rule:evenodd;stroke:#000000;stroke-width:6;image-rendering:optimizeQuality;shape-rendering:geometricPrecision;text-rendering:geometricPrecision;stroke-opacity:0"
     id="rect14619-0-9"
     width="319.67096"
     height="313.40283"
     x="913.56927"
     y="79.917763"
     module="dsVVA1" /><rect
     style="clip-rule:evenodd;fill:#ffffff;fill-opacity:0;fill-rule:evenodd;stroke:#000000;stroke-width:6;image-rendering:optimizeQuality;shape-rendering:geometricPrecision;text-rendering:geometricPrecision;stroke-opacity:0"
     id="rect14619-0-9-7"
     width="498.31067"
     height="278.9285"
     x="1422.8492"
     y="100.28895"
     module="dsSlope1" /><rect
     style="clip-rule:evenodd;fill:#ffffff;fill-opacity:0;fill-rule:evenodd;stroke:#000000;stroke-width:6;image-rendering:optimizeQuality;shape-rendering:geometricPrecision;text-rendering:geometricPrecision;stroke-opacity:0"
     id="rect14619-0-9-5"
     width="488.90845"
     height="266.3924"
     x="2181.2842"
     y="103.423"
     module="agcMode" /><rect
     style="clip-rule:evenodd;fill:#ffffff;fill-opacity:0;fill-rule:evenodd;stroke:#000000;stroke-width:6;image-rendering:optimizeQuality;shape-rendering:geometricPrecision;text-rendering:geometricPrecision;stroke-opacity:0"
     id="rect14619-0-9-0"
     width="294.59863"
     height="278.92853"
     x="1190.9309"
     y="783.50726"
     module="eREQ" /><rect
     style="clip-rule:evenodd;fill:#ffffff;fill-opacity:0;fill-rule:evenodd;stroke:#000000;stroke-width:6;image-rendering:optimizeQuality;shape-rendering:geometricPrecision;text-rendering:geometricPrecision;stroke-opacity:0"
     id="rect14619-0-9-0-4"
     width="310.26889"
     height="307.1348"
     x="1871.0153"
     y="772.53815"
     module="usVCA2" /><rect
     style="clip-rule:evenodd;fill:#ffffff;fill-opacity:0;fill-rule:evenodd;stroke:#000000;stroke-width:6;image-rendering:optimizeQuality;shape-rendering:geometricPrecision;text-rendering:geometricPrecision;stroke-opacity:0"
     id="rect14619-0-9-0-4-5"
     width="310.26889"
     height="307.1348"
     x="2875.4717"
     y="767.8371"
     module="usVCA1" /><path
     d="m 3338.9193,2015.7026 27.0529,-37.7382 h 5.682 l 4.5628,37.7382 h -6.0081 l -1.0915,-11.4297 h -16.6637 l -7.9331,11.4297 z m 16.3234,-15.497 h 13.5097 l -0.9047,-10.4513 q -0.4198,-4.7623 -0.3918,-7.8257 -1.8904,3.6298 -4.3915,7.2079 z m 25.4586,15.497 11.7471,-37.7382 h 26.8858 l -1.3862,4.4534 h -21.6116 l -3.6379,11.6869 h 18.7043 l -1.3864,4.4535 h -18.7043 l -5.3366,17.1444 z m 33.5729,0 11.7471,-37.7382 h 7.9379 l 1.1147,26.7204 q 0.1439,3.7326 0.1644,5.5861 1.3199,-2.0594 4.0024,-6.0495 l 17.7164,-26.257 h 7.0949 l -11.7472,37.7382 h -5.0835 l 9.832,-31.5859 -21.4141,31.5859 h -4.7554 l -1.5267,-32.1264 -10.0003,32.1264 z m 47.537,-11.3268 1.4505,-4.6593 h 15.0326 l -1.4503,4.6593 z m 17.3236,11.3268 11.7471,-37.7382 h 5.2752 l -10.3608,33.2846 h 19.6269 l -1.3863,4.4536 z m 31.2885,0 11.7472,-37.7382 h 28.8155 l -1.3862,4.4534 h -23.5405 l -3.5978,11.5583 h 22.045 l -1.3783,4.4277 h -22.045 l -3.9984,12.8452 h 24.464 l -1.3864,4.4536 z"
     id="text1"
     style="font-size:55.1626px;font-family:Arial;-inkscape-font-specification:'Arial, Normal';fill:#223560;fill-opacity:1;stroke:#000000;stroke-width:0.43883"
     aria-label="AFM-LE" /><g
     style="clip-rule:evenodd;fill-rule:evenodd;image-rendering:optimizeQuality;shape-rendering:geometricPrecision;text-rendering:geometricPrecision"
     id="g1"
     transform="translate(-2.3227658e-5,4.277616e-4)"
     inkscape:label="Watermark"><g
       id="use813"
       transform="rotate(-10.017158,-2415.5316,10821.104)"
       inkscape:label="Watermark0"
       inkscape:tile-x0="-635.34605"
       inkscape:tile-y0="-984.85668"
       inkscape:tile-cx="-236.16646"
       inkscape:tile-cy="-808.7445"
       inkscape:tile-w="799.94663"
       inkscape:tile-h="352.22394"><path
         id="ellipse991"
         style="fill:none;fill-opacity:0.0705882;stroke:#3f51b5;stroke-width:3.4741;stroke-opacity:0.07"
         d="m 798.2318,316.89734 a 32.874866,32.826107 0 0 1 -32.87487,32.82611 32.874866,32.826107 0 0 1 -32.87486,-32.82611 32.874866,32.826107 0 0 1 32.87486,-32.82611 32.874866,32.826107 0 0 1 32.87487,32.82611 z" /><path
         d="M 241.87952,307.45952 225.65753,264.81886 H 87.538897 l -16.221988,43.56763 q -9.50145,25.49169 -16.221988,34.52966 -6.720537,8.80622 -22.015554,8.80622 -12.97759,0 -22.942526,-9.50145 -9.96493483,-9.50145 -9.96493483,-21.55207 0,-6.95228 2.31742683,-14.36805 2.3174268,-7.41576 7.647508,-20.62509 L 97.040346,65.056674 q 3.707884,-9.50145 8.806224,-22.710782 5.33008,-13.441076 11.12365,-22.247298 6.02531,-8.806222 15.52676,-14.1363032 9.73319,-5.5618243 23.86949,-5.5618243 14.36805,0 23.8695,5.5618243 9.73319,5.3300812 15.52676,13.9045612 6.02531,8.574479 9.96493,18.539414 4.17137,9.733193 10.42842,26.186923 l 88.75745,219.228571 q 10.42842,25.02821 10.42842,36.38361 0,11.81887 -9.96493,21.78381 -9.7332,9.73319 -23.63776,9.73319 -8.11099,0 -13.90456,-3.01266 -5.79357,-2.78091 -9.73319,-7.6475 -3.93963,-5.09834 -8.57448,-15.29502 -4.40311,-10.42842 -7.64751,-18.30767 z M 105.61483,213.14025 H 207.11812 L 155.90299,72.935925 Z"
         id="text988"
         style="font-size:474.609px;font-family:'Arial Rounded MT Bold';-inkscape-font-specification:'Arial Rounded MT Bold, Normal';fill:#3f51b5;fill-opacity:0.07;stroke:#000000;stroke-width:0.299198;stroke-opacity:0"
         transform="scale(0.99948361,1.0005167)"
         aria-label="A" /><path
         d="m 606.75147,238.65207 q 0,16.22572 -8.11285,35.23298 -7.88106,18.77547 -25.03396,37.08734 -17.15289,18.08008 -43.80942,29.43808 -26.65653,11.358 -62.1213,11.358 -26.88832,0 -48.90893,-5.09951 -22.02061,-5.09951 -40.10069,-15.76212 -17.84829,-10.89441 -32.91502,-28.5109 -13.44416,-15.99391 -22.94779,-35.69656 -9.50364,-19.93445 -14.37135,-42.41865 -4.63592,-22.4842 -4.63592,-47.74996 0,-41.02787 11.82159,-73.47929 12.05339,-32.451428 34.3058,-55.399221 22.2524,-23.17959 52.15407,-35.232976 29.90167,-12.05338637 63.74387,-12.05338637 41.25967,0 73.4793,16.45750837 32.21963,16.457508 49.37252,40.796077 17.1529,24.106773 17.1529,45.663788 0,11.82159 -8.34465,20.86163 -8.34465,9.04004 -20.16624,9.04004 -13.21237,0 -19.93445,-6.25849 -6.49029,-6.25849 -14.60314,-21.55701 -13.44416,-25.265756 -31.75604,-37.782735 -18.08008,-12.516978 -44.73661,-12.516978 -42.41864,0 -67.6844,32.219629 -25.03395,32.219634 -25.03395,91.559374 0,39.6371 11.1262,66.06183 11.1262,26.19294 31.52424,39.17351 20.39804,12.98057 47.74995,12.98057 29.66988,0 50.06792,-14.60314 20.62983,-14.83494 31.06065,-43.34583 4.40412,-13.44417 10.8944,-21.78882 6.49029,-8.57645 20.86163,-8.57645 12.28519,0 21.09343,8.57645 8.80824,8.57645 8.80824,21.32522 z"
         id="text989"
         style="font-size:474.718px;font-family:'Arial Rounded MT Bold';-inkscape-font-specification:'Arial Rounded MT Bold, Normal';fill:#3f51b5;fill-opacity:0.07;stroke:#000000;stroke-width:0.299263;stroke-opacity:0"
         transform="scale(1.0003538,0.99964637)"
         aria-label="C" /><path
         d="M 632.90301,310.22643 V 41.81075 q 0,-20.915508 9.52818,-31.373262 9.52817,-10.4577538 24.63382,-10.4577538 15.57043,0 25.09861,10.4577538 9.76057,10.225359 9.76057,31.373262 v 268.41568 q 0,21.14791 -9.76057,31.60566 -9.52818,10.45775 -25.09861,10.45775 -14.87325,0 -24.63382,-10.45775 -9.52818,-10.69015 -9.52818,-31.60566 z"
         id="text990"
         style="font-size:475.944px;font-family:'Arial Rounded MT Bold';-inkscape-font-specification:'Arial Rounded MT Bold, Normal';fill:#3f51b5;fill-opacity:0.07;stroke:#000000;stroke-width:0.300039;stroke-opacity:0"
         transform="scale(1.00228,0.99772522)"
         aria-label="I" /><path
         d="m 747.55991,336.28922 v -37.83934 h 16.77733 q 5.05902,0 7.69177,1.03245 2.63275,1.00664 4.20723,3.58777 1.57449,2.58113 1.57449,5.70429 0,4.02656 -2.60694,6.78837 -2.60694,2.7618 -8.05312,3.51033 1.98747,0.95502 3.01992,1.88423 2.19396,2.01328 4.15562,5.03319 l 6.58188,10.29871 h -6.29796 l -5.00738,-7.87245 q -2.19396,-3.40708 -3.61358,-5.21387 -1.41962,-1.80679 -2.55532,-2.52951 -1.10989,-0.72271 -2.27139,-1.00664 -0.85178,-0.18068 -2.78762,-0.18068 h -5.80754 v 16.80315 z m 5.00739,-21.13944 h 10.7633 q 3.4329,0 5.36875,-0.69691 1.93585,-0.72271 2.94249,-2.27139 1.00664,-1.57449 1.00664,-3.40709 0,-2.68437 -1.96166,-4.41373 -1.93585,-1.72935 -6.14309,-1.72935 H 752.5673 Z"
         id="text991"
         style="font-size:52.8615px;font-family:Arial;-inkscape-font-specification:'Arial, Normal';fill:#3f51b5;fill-opacity:0.07;stroke:#000000;stroke-width:0.0333244;stroke-opacity:0"
         transform="scale(1.0014853,0.99851688)"
         aria-label="R" /></g><use
       x="0"
       y="0"
       inkscape:tiled-clone-of="#use813"
       xlink:href="#use813"
       transform="translate(153.1673,867.13635)"
       id="use3353" /><use
       x="0"
       y="0"
       inkscape:tiled-clone-of="#use813"
       xlink:href="#use813"
       transform="translate(306.33459,1734.2727)"
       id="use3354" /><use
       x="0"
       y="0"
       inkscape:tiled-clone-of="#use813"
       xlink:href="#use813"
       transform="translate(459.5019,2601.4091)"
       id="use3355" /><use
       x="0"
       y="0"
       inkscape:tiled-clone-of="#use813"
       xlink:href="#use813"
       transform="translate(612.66918,3468.5454)"
       id="use3356" /><use
       x="0"
       y="0"
       inkscape:tiled-clone-of="#use813"
       xlink:href="#use813"
       transform="translate(765.83649,4335.6817)"
       id="use3357" /><use
       x="0"
       y="0"
       inkscape:tiled-clone-of="#use813"
       xlink:href="#use813"
       transform="translate(1575.5041,-278.29038)"
       id="use3358" /><use
       x="0"
       y="0"
       inkscape:tiled-clone-of="#use813"
       xlink:href="#use813"
       transform="translate(1728.6714,588.84597)"
       id="use3359" /><use
       x="0"
       y="0"
       inkscape:tiled-clone-of="#use813"
       xlink:href="#use813"
       transform="translate(1881.8387,1455.9823)"
       id="use3360" /><use
       x="0"
       y="0"
       inkscape:tiled-clone-of="#use813"
       xlink:href="#use813"
       transform="translate(2035.006,2323.1187)"
       id="use3361" /><use
       x="0"
       y="0"
       inkscape:tiled-clone-of="#use813"
       xlink:href="#use813"
       transform="translate(2188.1732,3190.255)"
       id="use3362" /><use
       x="0"
       y="0"
       inkscape:tiled-clone-of="#use813"
       xlink:href="#use813"
       transform="translate(2341.3406,4057.3914)"
       id="use3363" /><use
       x="0"
       y="0"
       inkscape:tiled-clone-of="#use813"
       xlink:href="#use813"
       transform="translate(3151.008,-556.58071)"
       id="use3364" /><use
       x="0"
       y="0"
       inkscape:tiled-clone-of="#use813"
       xlink:href="#use813"
       transform="translate(3304.1753,310.55561)"
       id="use3365" /><use
       x="0"
       y="0"
       inkscape:tiled-clone-of="#use813"
       xlink:href="#use813"
       transform="translate(3457.3426,1177.6919)"
       id="use3366" /><use
       x="0"
       y="0"
       inkscape:tiled-clone-of="#use813"
       xlink:href="#use813"
       transform="translate(3610.5099,2044.8283)"
       id="use3367" /><use
       x="0"
       y="0"
       inkscape:tiled-clone-of="#use813"
       xlink:href="#use813"
       transform="translate(3763.6772,2911.9646)"
       id="use3368" /><use
       x="0"
       y="0"
       inkscape:tiled-clone-of="#use813"
       xlink:href="#use813"
       transform="translate(3916.8445,3779.101)"
       id="use3369" /><use
       x="0"
       y="0"
       inkscape:tiled-clone-of="#use813"
       xlink:href="#use813"
       transform="translate(4726.5121,-834.87111)"
       id="use3370" /><use
       x="0"
       y="0"
       inkscape:tiled-clone-of="#use813"
       xlink:href="#use813"
       transform="translate(4879.6794,32.265238)"
       id="use3371" /><use
       x="0"
       y="0"
       inkscape:tiled-clone-of="#use813"
       xlink:href="#use813"
       transform="translate(5032.8467,899.40157)"
       id="use3372" /><use
       x="0"
       y="0"
       inkscape:tiled-clone-of="#use813"
       xlink:href="#use813"
       transform="translate(5186.014,1766.538)"
       id="use3373" /><use
       x="0"
       y="0"
       inkscape:tiled-clone-of="#use813"
       xlink:href="#use813"
       transform="translate(5339.1813,2633.6742)"
       id="use3374" /><use
       x="0"
       y="0"
       inkscape:tiled-clone-of="#use813"
       xlink:href="#use813"
       transform="translate(5492.3486,3500.8106)"
       id="use3375" /><use
       x="0"
       y="0"
       inkscape:tiled-clone-of="#use813"
       xlink:href="#use813"
       transform="translate(6302.0161,-1113.1615)"
       id="use3376" /><use
       x="0"
       y="0"
       inkscape:tiled-clone-of="#use813"
       xlink:href="#use813"
       transform="translate(6455.1834,-246.02514)"
       id="use3377" /><use
       x="0"
       y="0"
       inkscape:tiled-clone-of="#use813"
       xlink:href="#use813"
       transform="translate(6608.3507,621.11119)"
       id="use3378" /><use
       x="0"
       y="0"
       inkscape:tiled-clone-of="#use813"
       xlink:href="#use813"
       transform="translate(6761.518,1488.2476)"
       id="use3379" /><use
       x="0"
       y="0"
       inkscape:tiled-clone-of="#use813"
       xlink:href="#use813"
       transform="translate(6914.6853,2355.3839)"
       id="use3380" /><use
       x="0"
       y="0"
       inkscape:tiled-clone-of="#use813"
       xlink:href="#use813"
       transform="translate(7067.8526,3222.5203)"
       id="use3381" /><use
       x="0"
       y="0"
       inkscape:tiled-clone-of="#use813"
       xlink:href="#use813"
       transform="translate(7877.5201,-1391.4518)"
       id="use3382" /><use
       x="0"
       y="0"
       inkscape:tiled-clone-of="#use813"
       xlink:href="#use813"
       transform="translate(8030.6874,-524.31551)"
       id="use3383" /><use
       x="0"
       y="0"
       inkscape:tiled-clone-of="#use813"
       xlink:href="#use813"
       transform="translate(8183.8547,342.82083)"
       id="use3384" /><use
       x="0"
       y="0"
       inkscape:tiled-clone-of="#use813"
       xlink:href="#use813"
       transform="translate(8337.022,1209.9572)"
       id="use3385" /><use
       x="0"
       y="0"
       inkscape:tiled-clone-of="#use813"
       xlink:href="#use813"
       transform="translate(8490.1893,2077.0935)"
       id="use3386" /><use
       x="0"
       y="0"
       inkscape:tiled-clone-of="#use813"
       xlink:href="#use813"
       transform="translate(8643.3566,2944.2299)"
       id="use3387" /><use
       x="0"
       y="0"
       inkscape:tiled-clone-of="#use813"
       xlink:href="#use813"
       transform="translate(9453.0242,-1669.7422)"
       id="use3388" /><use
       x="0"
       y="0"
       inkscape:tiled-clone-of="#use813"
       xlink:href="#use813"
       transform="translate(9606.1915,-802.60591)"
       id="use3389" /><use
       x="0"
       y="0"
       inkscape:tiled-clone-of="#use813"
       xlink:href="#use813"
       transform="translate(9759.3587,64.530448)"
       id="use3390" /><use
       x="0"
       y="0"
       inkscape:tiled-clone-of="#use813"
       xlink:href="#use813"
       transform="translate(9912.5261,931.66689)"
       id="use3391" /><use
       x="0"
       y="0"
       inkscape:tiled-clone-of="#use813"
       xlink:href="#use813"
       transform="translate(10065.693,1798.8031)"
       id="use3392" /><use
       x="0"
       y="0"
       inkscape:tiled-clone-of="#use813"
       xlink:href="#use813"
       transform="translate(10218.861,2665.9395)"
       id="use3393" /><use
       x="0"
       y="0"
       inkscape:tiled-clone-of="#use813"
       xlink:href="#use813"
       transform="translate(11028.528,-1948.0326)"
       id="use3394" /><use
       x="0"
       y="0"
       inkscape:tiled-clone-of="#use813"
       xlink:href="#use813"
       transform="translate(11181.696,-1080.8963)"
       id="use3395" /><use
       x="0"
       y="0"
       inkscape:tiled-clone-of="#use813"
       xlink:href="#use813"
       transform="translate(11334.863,-213.75994)"
       id="use3396" /><use
       x="0"
       y="0"
       inkscape:tiled-clone-of="#use813"
       xlink:href="#use813"
       transform="translate(11488.03,653.37645)"
       id="use3397" /><use
       x="0"
       y="0"
       inkscape:tiled-clone-of="#use813"
       xlink:href="#use813"
       transform="translate(11641.197,1520.5127)"
       id="use3398" /><use
       x="0"
       y="0"
       inkscape:tiled-clone-of="#use813"
       xlink:href="#use813"
       transform="translate(11794.365,2387.6491)"
       id="use3399" /><use
       x="0"
       y="0"
       inkscape:tiled-clone-of="#use813"
       xlink:href="#use813"
       transform="translate(12604.032,-2226.3229)"
       id="use3400" /><use
       x="0"
       y="0"
       inkscape:tiled-clone-of="#use813"
       xlink:href="#use813"
       transform="translate(12757.199,-1359.1866)"
       id="use3401" /><use
       x="0"
       y="0"
       inkscape:tiled-clone-of="#use813"
       xlink:href="#use813"
       transform="translate(12910.367,-492.05031)"
       id="use3402" /><use
       x="0"
       y="0"
       inkscape:tiled-clone-of="#use813"
       xlink:href="#use813"
       transform="translate(13063.534,375.08613)"
       id="use3403" /><use
       x="0"
       y="0"
       inkscape:tiled-clone-of="#use813"
       xlink:href="#use813"
       transform="translate(13216.701,1242.2224)"
       id="use3404" /><use
       x="0"
       y="0"
       inkscape:tiled-clone-of="#use813"
       xlink:href="#use813"
       transform="translate(13369.869,2109.3588)"
       id="use3405" /><use
       x="0"
       y="0"
       inkscape:tiled-clone-of="#use813"
       xlink:href="#use813"
       transform="translate(14179.536,-2504.6133)"
       id="use3406" /><use
       x="0"
       y="0"
       inkscape:tiled-clone-of="#use813"
       xlink:href="#use813"
       transform="translate(14332.703,-1637.4769)"
       id="use3407" /><use
       x="0"
       y="0"
       inkscape:tiled-clone-of="#use813"
       xlink:href="#use813"
       transform="translate(14485.87,-770.34061)"
       id="use3408" /><use
       x="0"
       y="0"
       inkscape:tiled-clone-of="#use813"
       xlink:href="#use813"
       transform="translate(14639.038,96.795798)"
       id="use3409" /><use
       x="0"
       y="0"
       inkscape:tiled-clone-of="#use813"
       xlink:href="#use813"
       transform="translate(14792.205,963.93209)"
       id="use3410" /><use
       x="0"
       y="0"
       inkscape:tiled-clone-of="#use813"
       xlink:href="#use813"
       transform="translate(14945.372,1831.0685)"
       id="use3411" /></g></svg>
